<svg xmlns="http://www.w3.org/2000/svg" xmlns:xlink="http://www.w3.org/1999/xlink" width="400" zoomAndPan="magnify" viewBox="0 0 300 60" height="80" preserveAspectRatio="xMidYMid meet" version="1.0"><metadata/><defs><g/><clipPath id="eadae7b919"><rect x="0" width="246" y="0" height="25"/></clipPath></defs><g transform="matrix(1, 0, 0, 1, 44, 22)"><g clip-path="url(#eadae7b919)"><g fill="#434343" fill-opacity="1"><g transform="translate(0.629512, 18.894961)"><g><path d="M 12.082031 0.121094 L 7.816406 0.121094 L 7.816406 -6.984375 L 5.625 -6.984375 L 5.625 -9.128906 L 3.480469 -9.128906 L 3.480469 -11.273438 L 1.550781 -11.273438 L 1.550781 -17.183594 L 5.625 -17.183594 L 5.625 -11.273438 L 7.816406 -11.273438 L 7.816406 -9.128906 L 12.082031 -9.128906 L 12.082031 -11.273438 L 14.230469 -11.273438 L 14.230469 -17.183594 L 18.351562 -17.183594 L 18.351562 -11.273438 L 16.375 -11.273438 L 16.375 -9.128906 L 14.230469 -9.128906 L 14.230469 -6.984375 L 12.082031 -6.984375 Z M 12.082031 0.121094 "/></g></g></g><g fill="#434343" fill-opacity="1"><g transform="translate(20.528535, 18.894961)"><g><path d="M 12.082031 0.121094 L 7.816406 0.121094 L 7.816406 -6.984375 L 5.625 -6.984375 L 5.625 -9.128906 L 3.480469 -9.128906 L 3.480469 -11.273438 L 1.550781 -11.273438 L 1.550781 -17.183594 L 5.625 -17.183594 L 5.625 -11.273438 L 7.816406 -11.273438 L 7.816406 -9.128906 L 12.082031 -9.128906 L 12.082031 -11.273438 L 14.230469 -11.273438 L 14.230469 -17.183594 L 18.351562 -17.183594 L 18.351562 -11.273438 L 16.375 -11.273438 L 16.375 -9.128906 L 14.230469 -9.128906 L 14.230469 -6.984375 L 12.082031 -6.984375 Z M 12.082031 0.121094 "/></g></g></g><g fill="#434343" fill-opacity="1"><g transform="translate(40.427557, 18.894961)"><g/></g></g><g fill="#434343" fill-opacity="1"><g transform="translate(47.100285, 18.894961)"><g><path d="M 15.109375 0.121094 L 5.816406 0.121094 L 5.816406 -2.242188 L 3.457031 -2.242188 L 3.457031 -4.601562 L 1.550781 -4.601562 L 1.550781 -12.464844 L 3.457031 -12.464844 L 3.457031 -14.824219 L 5.816406 -14.824219 L 5.816406 -17.183594 L 15.109375 -17.183594 L 15.109375 -14.824219 L 8.175781 -14.824219 L 8.175781 -12.464844 L 5.816406 -12.464844 L 5.816406 -4.601562 L 8.175781 -4.601562 L 8.175781 -2.242188 L 15.109375 -2.242188 Z M 15.109375 0.121094 "/></g></g></g><g fill="#434343" fill-opacity="1"><g transform="translate(63.73444, 18.894961)"><g><path d="M 5.457031 -17.183594 L 5.457031 -2.242188 L 7.363281 -2.242188 L 7.363281 0.121094 L 3.097656 0.121094 L 3.097656 -2.242188 L 1.191406 -2.242188 L 1.191406 -17.183594 Z M 5.457031 -17.183594 "/></g></g></g><g fill="#434343" fill-opacity="1"><g transform="translate(70.38333, 18.894961)"><g><path d="M 4.625 -2.003906 L 3.21875 -2.003906 L 3.21875 -3.410156 L 1.550781 -3.410156 L 1.550781 -9.128906 L 3.21875 -9.128906 L 3.21875 -11.011719 L 4.625 -11.011719 L 4.625 -12.894531 L 12.035156 -12.894531 L 12.035156 -11.011719 L 13.441406 -11.011719 L 13.441406 -9.128906 L 15.109375 -9.128906 L 15.109375 -3.410156 L 13.441406 -3.410156 L 13.441406 -2.003906 L 12.035156 -2.003906 L 12.035156 0.121094 L 4.625 0.121094 Z M 6.984375 -2.003906 L 9.675781 -2.003906 L 9.675781 -4.125 L 11.082031 -4.125 L 11.082031 -9.128906 L 9.675781 -9.128906 L 9.675781 -11.011719 L 6.984375 -11.011719 L 6.984375 -9.128906 L 5.578125 -9.128906 L 5.578125 -4.125 L 6.984375 -4.125 Z M 6.984375 -2.003906 "/></g></g></g><g fill="#434343" fill-opacity="1"><g transform="translate(87.041313, 18.894961)"><g><path d="M 5.816406 -12.894531 L 5.816406 -2.242188 L 10.84375 -2.242188 L 10.84375 -12.894531 L 15.109375 -12.894531 L 15.109375 0.121094 L 3.21875 0.121094 L 3.21875 -2.242188 L 1.550781 -2.242188 L 1.550781 -12.894531 Z M 5.816406 -12.894531 "/></g></g></g><g fill="#434343" fill-opacity="1"><g transform="translate(103.699297, 18.894961)"><g><path d="M 15.109375 -17.183594 L 15.109375 -2.242188 L 13.203125 -2.242188 L 13.203125 0.121094 L 3.457031 0.121094 L 3.457031 -2.242188 L 1.550781 -2.242188 L 1.550781 -10.535156 L 3.457031 -10.535156 L 3.457031 -12.894531 L 10.84375 -12.894531 L 10.84375 -17.183594 Z M 10.84375 -10.535156 L 5.816406 -10.535156 L 5.816406 -2.242188 L 10.84375 -2.242188 Z M 10.84375 -10.535156 "/></g></g></g><g fill="#434343" fill-opacity="1"><g transform="translate(120.35728, 18.894961)"><g/></g></g><g fill="#434343" fill-opacity="1"><g transform="translate(127.030009, 18.894961)"><g><path d="M 15.109375 0.121094 L 5.816406 0.121094 L 5.816406 -2.242188 L 3.457031 -2.242188 L 3.457031 -4.601562 L 1.550781 -4.601562 L 1.550781 -12.464844 L 3.457031 -12.464844 L 3.457031 -14.824219 L 5.816406 -14.824219 L 5.816406 -17.183594 L 15.109375 -17.183594 L 15.109375 -14.824219 L 8.175781 -14.824219 L 8.175781 -12.464844 L 5.816406 -12.464844 L 5.816406 -4.601562 L 8.175781 -4.601562 L 8.175781 -2.242188 L 15.109375 -2.242188 Z M 15.109375 0.121094 "/></g></g></g><g fill="#434343" fill-opacity="1"><g transform="translate(143.664163, 18.894961)"><g><path d="M 5.816406 -12.894531 L 5.816406 -2.242188 L 10.84375 -2.242188 L 10.84375 -12.894531 L 15.109375 -12.894531 L 15.109375 0.121094 L 3.21875 0.121094 L 3.21875 -2.242188 L 1.550781 -2.242188 L 1.550781 -12.894531 Z M 5.816406 -12.894531 "/></g></g></g><g fill="#434343" fill-opacity="1"><g transform="translate(160.322147, 18.894961)"><g><path d="M 5.816406 -17.183594 L 5.816406 -12.894531 L 13.203125 -12.894531 L 13.203125 -10.535156 L 15.109375 -10.535156 L 15.109375 -2.242188 L 13.203125 -2.242188 L 13.203125 0.121094 L 3.457031 0.121094 L 3.457031 -2.242188 L 1.550781 -2.242188 L 1.550781 -17.183594 Z M 5.816406 -2.242188 L 10.84375 -2.242188 L 10.84375 -10.535156 L 5.816406 -10.535156 Z M 5.816406 -2.242188 "/></g></g></g><g fill="#434343" fill-opacity="1"><g transform="translate(176.98012, 18.894961)"><g><path d="M 5.816406 -7.675781 L 10.84375 -7.675781 L 10.84375 -10.535156 L 5.816406 -10.535156 Z M 5.816406 -2.003906 L 10.84375 -2.003906 L 10.84375 -4.363281 L 15.109375 -4.363281 L 15.109375 -2.003906 L 13.203125 -2.003906 L 13.203125 0.359375 L 3.457031 0.359375 L 3.457031 -2.003906 L 1.550781 -2.003906 L 1.550781 -10.535156 L 3.457031 -10.535156 L 3.457031 -12.894531 L 13.203125 -12.894531 L 13.203125 -10.535156 L 15.109375 -10.535156 L 15.109375 -7.4375 L 13.203125 -7.4375 L 13.203125 -5.316406 L 5.816406 -5.316406 Z M 5.816406 -2.003906 "/></g></g></g><g fill="#434343" fill-opacity="1"><g transform="translate(193.638122, 18.894961)"><g/></g></g><g fill="#434343" fill-opacity="1"><g transform="translate(200.310831, 18.894961)"><g><path d="M 5.457031 -17.183594 L 5.457031 -2.242188 L 7.363281 -2.242188 L 7.363281 0.121094 L 3.097656 0.121094 L 3.097656 -2.242188 L 1.191406 -2.242188 L 1.191406 -17.183594 Z M 5.457031 -17.183594 "/></g></g></g><g fill="#434343" fill-opacity="1"><g transform="translate(206.959731, 18.894961)"><g><path d="M 10.84375 0.121094 L 10.84375 -10.535156 L 5.816406 -10.535156 L 5.816406 0.121094 L 1.550781 0.121094 L 1.550781 -12.894531 L 13.441406 -12.894531 L 13.441406 -10.535156 L 15.109375 -10.535156 L 15.109375 0.121094 Z M 10.84375 0.121094 "/></g></g></g><g fill="#434343" fill-opacity="1"><g transform="translate(223.617715, 18.894961)"><g><path d="M 13.441406 0.121094 L 3.457031 0.121094 L 3.457031 -2.242188 L 1.550781 -2.242188 L 1.550781 -10.535156 L 3.457031 -10.535156 L 3.457031 -12.894531 L 13.441406 -12.894531 L 13.441406 -10.535156 L 5.816406 -10.535156 L 5.816406 -2.242188 L 13.441406 -2.242188 Z M 13.441406 0.121094 "/></g></g></g><g fill="#434343" fill-opacity="1"><g transform="translate(238.60752, 18.894961)"><g><path d="M 1.191406 -2.71875 L 5.457031 -2.71875 L 5.457031 1.550781 L 1.191406 1.550781 Z M 1.191406 -2.71875 "/></g></g></g></g></g></svg>